<svg xmlns="http://www.w3.org/2000/svg" viewBox="0 -0.5 16 16" shape-rendering="crispEdges">
<path stroke="#17162b" d="M6 1h4M5 2h1M10 2h1M3 3h2M11 3h2M2 4h1M5 4h1M10 4h1M13 4h1M1 5h1M4 5h1M11 5h1M14 5h1M1 6h1M14 6h1M1 7h1M6 7h1M9 7h1M14 7h1M1 8h1M6 8h1M9 8h1M14 8h1M1 9h1M14 9h1M1 10h1M4 10h1M11 10h1M14 10h1M2 11h1M5 11h1M10 11h1M13 11h1M3 12h2M11 12h2M5 13h1M10 13h1M6 14h4" />
<path stroke="#18656e" d="M6 2h1M9 2h1M5 3h1M10 3h1M3 4h2M11 4h2M2 5h2M12 5h2M2 6h2M12 6h2M2 7h2M12 7h2M2 8h2M12 8h2M2 9h2M12 9h2M2 10h2M12 10h2M3 11h2M11 11h2M5 12h1M10 12h1M6 13h1M9 13h1" />
<path stroke="#52a2a7" d="M7 2h2M6 3h4M5 4h5M4 5h7M4 6h8M4 7h2M10 7h2M4 8h2M10 8h2M4 9h8M4 10h7M5 11h5M6 12h4M7 13h2" />
<path stroke="#9ddacb" d="M7 3h2M6 4h3M5 5h2M5 6h2M5 7h1" />
<path stroke="#c1edc7" d="M7 4h1M6 5h1" />
<path stroke="#2c2b4b" d="M7 7h2M7 8h2" />
</svg>
