<svg xmlns="http://www.w3.org/2000/svg" viewBox="0 -0.5 16 16" shape-rendering="crispEdges">
<path stroke="#17162b" d="M5 1h2M9 1h2M4 2h1M7 2h2M11 2h1M3 3h1M12 3h1M2 4h1M13 4h1M2 5h1M13 5h1M1 6h1M6 6h1M9 6h1M14 6h1M1 7h1M6 7h1M9 7h1M14 7h1M1 8h1M7 8h2M14 8h1M1 9h1M14 9h1M1 10h1M5 10h1M10 10h1M14 10h1M2 11h1M4 11h1M11 11h1M13 11h1M2 12h1M4 12h1M11 12h1M13 12h1M3 13h1M5 13h1M10 13h1M12 13h1M3 14h2M11 14h2M5 15h2M9 15h2" />
<path stroke="#4f4d7e" d="M5 2h2M9 2h2M4 3h8M3 4h10M3 5h10M2 6h4M7 6h2M10 6h4M2 7h4M7 7h2M10 7h4M2 8h5M9 8h5M2 9h12M2 10h3M6 10h4M11 10h3M3 11h1M5 11h6M12 11h1M3 12h1M5 12h6M12 12h1M4 13h1M6 13h4M11 13h1M5 14h6" />
<path stroke="#7d7db0" d="M6 3h4M5 4h6M4 5h3M9 5h3M3 6h3M10 6h3M3 7h3M10 7h3M3 8h3M10 8h3M3 9h4M9 9h4" />
<path stroke="#c6c6dc" d="M7 4h2M6 5h1M9 5h1M5 6h1M10 6h1" />
<path stroke="#eee7ee" d="M7 5h2" />
<path stroke="#2c2b4b" d="M7 10h2M7 11h2M7 12h2M7 13h2" />
</svg>
